<?xml version="1.0" encoding="UTF-8"?><svg xmlns="http://www.w3.org/2000/svg" xmlns:xlink="http://www.w3.org/1999/xlink" width="1456.0" height="740.0" viewBox="-270.0 170.0 1456.0 740.0" version="1.1">
<rect x="-270.0" y="170.0" width="1456.0" height="740.0" fill="rgb(11,19,30)"/>
<g id="g115634668">
<polygon id="s724399710" points="100.0,300.0 240.00006,300.0 240.00006,200.0 128.0,200.0 100.0,216.66666 " fill="none" stroke-width="2.0" stroke="rgb(221,116,11)"/>
<g id="t115634668">
<text x="146.50003" y="235.29199" font-family="Helvetica" fill="rgb(229,255,255)" font-size="14" textLength="47.0">Library:</text>
<text x="128.00003" y="253.87207" font-family="Helvetica" fill="rgb(229,255,255)" font-size="14" textLength="84.0">flask,pyserial,</text>
<text x="120.00003" y="272.45215" font-family="Helvetica" fill="rgb(229,255,255)" font-size="14" textLength="100.0">mysqlconnector</text>
</g>
</g>
<g id="g310548917">
<polygon id="s656423487" points="280.0,300.0 499.99982,300.0 500.0,200.00002 323.99994,200.00002 280.0,216.66667 " fill="none" stroke-width="2.0" stroke="rgb(221,116,11)"/>
<g id="t310548917">
<text x="298.0" y="253.87207" font-family="Helvetica" fill="rgb(229,255,255)" font-size="14" textLength="184.0">DistanceMeasurementUnit.py</text>
</g>
</g>
<g id="g57591882">
<polygon id="s103952140" points="319.99997,440.0 460.00003,440.0 460.00003,340.0 347.99997,340.0 319.99997,356.66666 " fill="none" stroke-width="2.0" stroke="rgb(221,116,11)"/>
<g id="t57591882">
<text x="342.5" y="393.87207" font-family="Helvetica" fill="rgb(229,255,255)" font-size="14" textLength="95.0">retrieveData.py</text>
</g>
</g>
<g id="g711852987">
<polygon id="s486269013" points="319.99997,580.0 460.00003,580.0 460.00003,480.0 347.99997,480.0 319.99997,496.66666 " fill="none" stroke-width="2.0" stroke="rgb(221,116,11)"/>
<g id="t711852987">
<text x="329.5" y="533.8721" font-family="Helvetica" fill="rgb(229,255,255)" font-size="14" textLength="121.0">captureDistance.py</text>
</g>
</g>
<g id="g865911000">
<polygon id="s743873130" points="599.99994,580.0 740.0,580.0 740.0,479.99997 627.99994,479.99997 599.99994,496.66663 " fill="none" stroke-width="2.0" stroke="rgb(221,116,11)"/>
<g id="t865911000">
<text x="644.5" y="533.8721" font-family="Helvetica" fill="rgb(229,255,255)" font-size="14" textLength="51.0">store.py</text>
</g>
</g>
<g id="g999300145">
<polygon id="s468204379" points="319.99997,720.0 460.00003,720.0 460.00003,620.0 347.99997,620.0 319.99997,636.6666 " fill="none" stroke-width="2.0" stroke="rgb(221,116,11)"/>
<g id="t999300145">
<text x="348.5" y="673.8721" font-family="Helvetica" fill="rgb(229,255,255)" font-size="14" textLength="83.0">relayData.ino</text>
</g>
</g>
<g id="g64560918">
<polygon id="s660156408" points="-240.0,440.0 -99.99994,440.0 -99.99994,340.0 -212.0,340.0 -240.0,356.66663 " fill="none" stroke-width="2.0" stroke="rgb(221,116,11)"/>
<g id="t64560918">
<text x="-194.49997" y="393.87207" font-family="Helvetica" fill="rgb(229,255,255)" font-size="14" textLength="49.0">login.py</text>
</g>
</g>
<g id="g737091735">
<polygon id="s1063726289" points="-40.0,439.99997 120.000015,440.0 120.00001,340.00003 -7.9998894,340.00003 -39.999863,356.66663 " fill="none" stroke-width="2.0" stroke="rgb(221,116,11)"/>
<g id="t737091735">
<text x="-36.999992" y="393.87207" font-family="Helvetica" fill="rgb(229,255,255)" font-size="14" textLength="154.0">serviceAuthentication.py</text>
</g>
</g>
<g id="g478745220">
<polygon id="s691794742" points="-240.0,880.0 -99.99994,880.0 -99.99994,780.0 -212.0,780.0 -240.0,796.6666 " fill="none" stroke-width="2.0" stroke="rgb(221,116,11)"/>
<g id="t478745220">
<text x="-216.49997" y="833.8721" font-family="Helvetica" fill="rgb(229,255,255)" font-size="14" textLength="93.0">adminLogin.py</text>
</g>
</g>
<g id="g1657453">
<polygon id="s610611767" points="-120.0,720.0 120.00003,720.0 119.99997,620.00006 -71.99975,620.00006 -119.999725,636.6667 " fill="none" stroke-width="2.0" stroke="rgb(221,116,11)"/>
<g id="t1657453">
<text x="-96.999985" y="673.8721" font-family="Helvetica" fill="rgb(229,255,255)" font-size="14" textLength="194.0">adminServiceAuthentication.py</text>
</g>
</g>
<g id="g1019221666">
<path id="s569201572" d=" M-39.99991,496.66666  C-23.99992,474.44443 103.99988,474.44443 120.000015,496.66666  L119.999954,563.3333  C103.999985,585.55554 -23.999905,585.5556 -40.0,563.3333  z" fill="none" stroke-width="2.0" stroke="rgb(221,116,11)"/>
<path id="s375440653" d=" M-39.99991,496.66666  C-23.999926,518.889 104.0,518.8889 120.000015,496.66666 " fill="none" stroke-width="2.0" stroke="rgb(221,116,11)"/>
<g id="t1019221666">
<text x="38.000008" y="515.292" font-family="Helvetica" fill="rgb(229,255,255)" font-size="14" textLength="4.0">.</text>
<text x="26.500008" y="533.8721" font-family="Helvetica" fill="rgb(229,255,255)" font-size="14" textLength="27.0">user</text>
<text x="10.500008" y="552.45215" font-family="Helvetica" fill="rgb(229,255,255)" font-size="14" textLength="59.0">database</text>
</g>
</g>
<g id="g133902131">
<path id="s944508098" d=" M600.0,356.66666  C614.00006,334.44446 726.00006,334.44446 740.00006,356.66666  L740.00006,423.33334  C726.00006,445.55554 614.00006,445.55554 600.0,423.33334  z" fill="none" stroke-width="2.0" stroke="rgb(221,116,11)"/>
<path id="s72399571" d=" M600.0,356.66666  C614.00006,378.8889 726.00006,378.8889 740.00006,356.66666 " fill="none" stroke-width="2.0" stroke="rgb(221,116,11)"/>
<g id="t133902131">
<text x="668.0" y="375.292" font-family="Helvetica" fill="rgb(229,255,255)" font-size="14" textLength="4.0">.</text>
<text x="643.5" y="393.87207" font-family="Helvetica" fill="rgb(229,255,255)" font-size="14" textLength="53.0">distance</text>
<text x="640.5" y="412.45215" font-family="Helvetica" fill="rgb(229,255,255)" font-size="14" textLength="59.0">database</text>
</g>
</g>
<g id="g583455472">
<polygon id="s25036304" points="320.0,860.0 460.00006,860.0 460.00006,760.0 348.0,760.0 320.0,776.6666 " fill="none" stroke-width="2.0" stroke="rgb(221,116,11)"/>
<g id="t583455472">
<text x="351.50003" y="813.8721" font-family="Helvetica" fill="rgb(229,255,255)" font-size="14" textLength="77.0">measure.ino</text>
</g>
</g>
<g id="g948772969">
<polygon id="s149005577" points="80.0,880.0 220.00006,880.0 220.00006,780.0 108.0,780.0 80.0,796.6666 " fill="none" stroke-width="2.0" stroke="rgb(221,116,11)"/>
<g id="t948772969">
<text x="97.50003" y="833.8721" font-family="Helvetica" fill="rgb(229,255,255)" font-size="14" textLength="105.0">manageUsers.py</text>
</g>
</g>
<g id="la237828846">
<path id="s237828846" d="M 240.00006,250.0 280.0,250.0 " fill="none" stroke-width="2.0" stroke="rgb(221,116,11)" stroke-dasharray="7.0 7.0"/>
<g id="t237828846"/>
</g>
<g id="la1068469135">
<path id="s1068469135" d="M 390.00003,760.0 390.0,720.0 " fill="none" stroke-width="2.0" stroke="rgb(221,116,11)" stroke-dasharray="7.0 7.0"/>
<path id="s911356686" d="M 397.73062,729.1781 390.0,720.0 382.2694,729.1781 " fill="none" stroke-width="2.0" stroke="rgb(221,116,11)"/>
<g id="t1068469135"/>
</g>
<g id="la433991196">
<path id="s433991196" d="M 460.00003,390.0 600.0,390.0 " fill="none" stroke-width="2.0" stroke="rgb(221,116,11)" stroke-dasharray="7.0 7.0"/>
<path id="s929181999" d="M 469.17813,382.26938 460.00003,390.0 469.17813,397.73062 " fill="none" stroke-width="2.0" stroke="rgb(221,116,11)"/>
<g id="t433991196"/>
</g>
<g id="la994990629">
<path id="s994990629" d="M 460.00003,530.0 600.0,530.0 " fill="none" stroke-width="2.0" stroke="rgb(221,116,11)" stroke-dasharray="7.0 7.0"/>
<path id="s958755644" d="M 590.8219,537.7306 600.0,530.0 590.8219,522.2694 " fill="none" stroke-width="2.0" stroke="rgb(221,116,11)"/>
<g id="t994990629"/>
</g>
<g id="la1030871034">
<path id="s1030871034" d="M 670.0,480.0 670.0,439.99997 " fill="none" stroke-width="2.0" stroke="rgb(221,116,11)" stroke-dasharray="7.0 7.0"/>
<path id="s443975877" d="M 677.7306,449.17807 670.0,439.99997 662.2694,449.17807 " fill="none" stroke-width="2.0" stroke="rgb(221,116,11)"/>
<g id="t1030871034"/>
</g>
<g id="la514019755">
<path id="s514019755" d="M 390.0,620.0 390.0,580.0 " fill="none" stroke-width="2.0" stroke="rgb(221,116,11)" stroke-dasharray="7.0 7.0"/>
<path id="s797078042" d="M 397.73062,589.1781 390.0,580.0 382.26938,589.1781 " fill="none" stroke-width="2.0" stroke="rgb(221,116,11)"/>
<g id="t514019755"/>
</g>
<g id="la598609928">
<path id="s598609928" d="M -99.99994,390.0 -40.0,390.0 " fill="none" stroke-width="2.0" stroke="rgb(221,116,11)" stroke-dasharray="7.0 7.0"/>
<path id="s325759307" d="M -49.17811,397.73062 -40.0,390.0 -49.178104,382.26938 " fill="none" stroke-width="2.0" stroke="rgb(221,116,11)"/>
<g id="t598609928"/>
</g>
<g id="la674198433">
<path id="s674198433" d="M 120.000015,410.0 319.99997,410.0 " fill="none" stroke-width="2.0" stroke="rgb(221,116,11)" stroke-dasharray="7.0 7.0"/>
<path id="s829720360" d="M 129.17812,402.26938 120.000015,410.0 129.17812,417.73062 " fill="none" stroke-width="2.0" stroke="rgb(221,116,11)"/>
<g id="t674198433"/>
</g>
<g id="la552958406">
<path id="s552958406" d="M 120.000015,370.0 319.99997,370.0 " fill="none" stroke-width="2.0" stroke="rgb(221,116,11)" stroke-dasharray="7.0 7.0"/>
<path id="s12315713" d="M 310.82187,377.73062 319.99997,370.0 310.82187,362.26938 " fill="none" stroke-width="2.0" stroke="rgb(221,116,11)"/>
<g id="t552958406"/>
</g>
<g id="la147021191">
<path id="s147021191" d="M 7.6293945E-6,440.0 7.6293945E-6,480.0 " fill="none" stroke-width="2.0" stroke="rgb(221,116,11)" stroke-dasharray="7.0 7.0"/>
<path id="s222664166" d="M 7.7306194,449.1781 7.6293945E-6,440.0 -7.730604,449.1781 " fill="none" stroke-width="2.0" stroke="rgb(221,116,11)"/>
<g id="t147021191"/>
</g>
<g id="la521675956">
<path id="s521675956" d="M 80.00001,440.0 80.00001,480.0 " fill="none" stroke-width="2.0" stroke="rgb(221,116,11)" stroke-dasharray="7.0 7.0"/>
<path id="s808523559" d="M 72.269394,470.8219 80.00001,480.0 87.73062,470.8219 " fill="none" stroke-width="2.0" stroke="rgb(221,116,11)"/>
<g id="t521675956"/>
</g>
<g id="la799975645">
<path id="s799975645" d="M -149.99997,780.0 -119.99998,720.0 " fill="none" stroke-width="2.0" stroke="rgb(221,116,11)" stroke-dasharray="7.0 7.0"/>
<path id="s153021908" d="M -117.19008,731.6664 -119.99998,720.0 -131.01903,724.7519 " fill="none" stroke-width="2.0" stroke="rgb(221,116,11)"/>
<g id="t799975645"/>
</g>
<g id="la1019178066">
<path id="s1019178066" d=" M120.000015,530.0  C204.45653,560.0295 134.20343,716.9142 150.00003,780.0 " fill="none" stroke-width="2.0" stroke="rgb(221,116,11)" stroke-dasharray="7.0 7.0"/>
<path id="s345639805" d="M 131.23761,525.7909 120.000015,530.0 126.05788,540.3587 " fill="none" stroke-width="2.0" stroke="rgb(221,116,11)"/>
<path id="s348465778" d="M 140.27158,772.97455 150.00003,780.0 155.26976,769.219 " fill="none" stroke-width="2.0" stroke="rgb(221,116,11)"/>
<g id="t1019178066"/>
</g>
<g id="la166611747">
<path id="s166611747" d="M 40.000015,620.0 40.000008,580.0 " fill="none" stroke-width="2.0" stroke="rgb(221,116,11)" stroke-dasharray="7.0 7.0"/>
<path id="s823000771" d="M 47.73062,589.1781 40.000008,580.0 32.269398,589.1781 " fill="none" stroke-width="2.0" stroke="rgb(221,116,11)"/>
<g id="t166611747"/>
</g>
<g id="la359454752">
<path id="s359454752" d=" M500.0,210.0  C1156.6481,247.00638 970.202,714.1458 460.00006,810.0 " fill="none" stroke-width="2.0" stroke="rgb(221,116,11)" stroke-dasharray="7.0 7.0"/>
<path id="s879170368" d="M 467.59293,800.70764 460.00006,810.0 470.44775,815.903 " fill="none" stroke-width="2.0" stroke="rgb(221,116,11)"/>
<g id="t359454752"/>
</g>
<g id="la301069785">
<path id="s301069785" d=" M500.0,250.0  C976.5865,240.58864 912.638,705.7727 460.00003,670.0 " fill="none" stroke-width="2.0" stroke="rgb(221,116,11)" stroke-dasharray="7.0 7.0"/>
<path id="s457237113" d="M 469.75867,663.01654 460.00003,670.0 468.54056,678.4297 " fill="none" stroke-width="2.0" stroke="rgb(221,116,11)"/>
<g id="t301069785"/>
</g>
<g id="la465828766">
<path id="s465828766" d="M 80.000015,720.0 110.00003,780.0 " fill="none" stroke-width="2.0" stroke="rgb(221,116,11)" stroke-dasharray="7.0 7.0"/>
<path id="s37190590" d="M 98.98099,775.2481 110.00003,780.0 112.80992,768.3336 " fill="none" stroke-width="2.0" stroke="rgb(221,116,11)"/>
<g id="t465828766"/>
</g>
</svg>
